<svg id="Capa_1" enable-background="new 0 0 512 512" height="512" viewBox="0 0 512 512" width="512" xmlns="http://www.w3.org/2000/svg" fill="rgb(253, 191, 48)"><g><path d="m207.903 192.387c-4.142 0-7.5 3.358-7.5 7.5v8.016c0 4.142 3.358 7.5 7.5 7.5s7.5-3.358 7.5-7.5v-8.016c0-4.142-3.358-7.5-7.5-7.5z"/><path d="m304.097 192.387c-4.142 0-7.5 3.358-7.5 7.5v8.016c0 4.142 3.358 7.5 7.5 7.5s7.5-3.358 7.5-7.5v-8.016c0-4.142-3.358-7.5-7.5-7.5z"/><path d="m285.316 261.338c2.949-2.909 2.98-7.658.071-10.606-2.91-2.949-7.659-2.98-10.606-.071-2.737 2.701-9.298 5.855-18.781 5.855s-16.043-3.154-18.781-5.855c-2.949-2.91-7.698-2.878-10.606.071-2.909 2.948-2.877 7.697.071 10.606 6.459 6.373 17.418 10.177 29.316 10.177s22.857-3.804 29.316-10.177z"/><path d="m215.919 168.338h-16.032c-4.142 0-7.5 3.358-7.5 7.5s3.358 7.5 7.5 7.5h16.032c4.142 0 7.5-3.358 7.5-7.5s-3.357-7.5-7.5-7.5z"/><path d="m296.081 183.338h16.032c4.142 0 7.5-3.358 7.5-7.5s-3.358-7.5-7.5-7.5h-16.032c-4.142 0-7.5 3.358-7.5 7.5s3.357 7.5 7.5 7.5z"/><path d="m415.978 390.956-84.486-24.849c-6.994-2.057-11.879-8.586-11.879-15.876v-34.527c25.013-17.396 42.617-44.741 47.019-76.252h4.459c14.617 0 27.154-10.861 28.542-24.727.778-7.771-1.764-15.531-6.974-21.288-2.522-2.786-5.568-4.992-8.917-6.533v-35.63h8.532c3.339 0 6.275-2.207 7.204-5.414s-.375-6.642-3.196-8.426c-3.938-2.49-8.131-4.849-12.54-7.083v-10.626c0-24.324-8.519-47.789-24.045-66.399l-.002-13.766c-.002-12.974-10.559-23.528-23.532-23.528h-8.018c-5.099 0-9.617 2.483-12.447 6.291-11.379-4.176-23.336-6.291-35.65-6.291h-.516v-.516c0-8.556-6.96-15.516-15.516-15.516h-16.032c-8.556 0-15.516 6.96-15.516 15.516v.516h-.516c-12.297 0-24.258 2.121-35.645 6.297-2.83-3.812-7.35-6.297-12.451-6.297h-8.017c-12.974 0-23.531 10.555-23.532 23.529l-.002 13.765c-15.526 18.61-24.045 42.075-24.045 66.4v10.635c-4.428 2.237-8.617 4.594-12.54 7.074-2.822 1.784-4.125 5.219-3.196 8.426s3.865 5.414 7.204 5.414h8.532v35.963c-8.63 4.115-14.93 12.266-15.891 21.859-.778 7.771 1.764 15.531 6.974 21.289 5.214 5.762 12.659 9.066 20.425 9.066h5.598c4.399 31.521 22.003 58.869 47.023 76.263v34.516c0 7.29-4.885 13.819-11.879 15.876l-84.486 24.849c-23.498 6.911-39.909 28.844-39.909 53.337v60.206c0 4.142 3.358 7.5 7.5 7.5s7.5-3.358 7.5-7.5v-60.206c0-17.885 11.983-33.9 29.142-38.947l28.003-8.236v107.389c0 4.142 3.358 7.5 7.5 7.5s7.5-3.358 7.5-7.5v-111.8l17.064-5.019v60.707c0 12.976 10.557 23.532 23.532 23.532l144.288.001c12.976 0 23.532-10.557 23.532-23.532v-32.065c0-4.142-3.358-7.5-7.5-7.5s-7.5 3.358-7.5 7.5v32.065c0 4.705-3.828 8.532-8.532 8.532l-144.288-.001c-4.705 0-8.532-3.828-8.532-8.532v-65.119l5.872-1.727c21.148 16.937 47.639 26.249 74.805 26.249 27.183 0 53.653-9.306 74.809-26.248l37.931 11.156v111.802c0 4.142 3.358 7.5 7.5 7.5s7.5-3.358 7.5-7.5v-107.391l28.005 8.237c17.158 5.046 29.142 21.062 29.142 38.947v60.206c0 4.142 3.358 7.5 7.5 7.5s7.5-3.358 7.5-7.5v-60.206c-.001-24.493-16.412-46.426-39.91-53.337zm-47.236-206.585h-8.532c-4.705 0-8.532-3.828-8.532-8.532v-24.564h17.064zm-225.484-64.645c0-21.63 7.873-42.462 22.168-58.661 1.209-1.37 1.876-3.134 1.876-4.961l.003-16.541c0-4.704 3.828-8.531 8.532-8.531h8.017c.285 0 .516.231.516.516v16.032c0 4.142 3.358 7.5 7.5 7.5s7.5-3.358 7.5-7.5v-10.368c10.356-4.098 21.3-6.18 32.581-6.18h.516v8.532c0 4.142 3.358 7.5 7.5 7.5s7.5-3.358 7.5-7.5v-24.048c0-.285.231-.516.516-.516h16.032c.285 0 .516.231.516.516v24.048c0 4.142 3.358 7.5 7.5 7.5s7.5-3.358 7.5-7.5v-8.532h.516c11.295 0 22.232 2.074 32.581 6.171v10.377c0 4.142 3.358 7.5 7.5 7.5s7.5-3.358 7.5-7.5v-16.032c0-.285.231-.516.516-.516h8.018c4.704 0 8.531 3.827 8.532 8.531l.002 16.541c0 1.827.667 3.591 1.876 4.961 14.295 16.198 22.168 37.031 22.168 58.66v3.866c-31.184-12.473-70.643-19.383-112.742-19.383-19.651 0-38.938 1.523-57.323 4.528-4.088.668-6.86 4.524-6.192 8.612.667 4.088 4.525 6.86 8.611 6.192 17.588-2.875 36.061-4.332 54.904-4.332 38.18 0 74.879 6.177 103.817 17.064h-207.698c5.6-2.111 11.525-4.058 17.759-5.833 3.984-1.134 6.294-5.283 5.16-9.267s-5.285-6.294-9.267-5.16c-7.963 2.267-15.472 4.812-22.511 7.615zm17.065 31.548v24.564c0 2.279-.888 4.422-2.499 6.033s-3.754 2.499-6.033 2.499h-8.532v-33.096zm-1.032 72.661c0-4.142-3.358-7.5-7.5-7.5s-7.5 3.358-7.5 7.5v.516h-4.524c-3.537 0-6.927-1.506-9.303-4.131-2.407-2.66-3.533-6.115-3.171-9.729.63-6.292 6.611-11.22 13.617-11.22h10.88c6.285 0 12.195-2.448 16.639-6.892 4.445-4.445 6.893-10.354 6.893-16.64v-24.564h161.354v24.564c0 12.976 10.557 23.532 23.532 23.532h12.024c3.537 0 6.928 1.505 9.303 4.13 2.407 2.659 3.533 6.115 3.171 9.729-.629 6.292-6.61 11.221-13.616 11.221h-3.385v-.439c0-4.141-3.356-7.499-7.497-7.5-.001 0-.002 0-.003 0-4.14 0-7.497 3.354-7.5 7.495-.039 53.286-43.421 96.637-96.706 96.637-53.325 0-96.708-43.383-96.708-96.709zm37.057 150.202c6.815-5.882 11.039-14.559 11.039-23.906v-25.733c14.705 7.137 31.199 11.146 48.613 11.146 17.412 0 33.906-4.012 48.613-11.153v25.74c0 9.349 4.226 18.027 11.042 23.909-17.434 12.079-38.292 18.649-59.655 18.649-21.35 0-42.22-6.576-59.652-18.652z"/></g></svg>