<svg id="Capa_1" enable-background="new 0 0 605.644 605.644" height="512" viewBox="0 0 605.644 605.644" width="512" xmlns="http://www.w3.org/2000/svg" fill="rgb(0, 7, 33)"><g><g id="Page-1_74_"><g id="_x30_75---Construction"><path id="Shape_278_" d="m575.361 121.129h-69.033l-264.071-88.02v-2.826c0-16.725-13.557-30.283-30.282-30.283h-80.752c-16.724 0-30.282 13.558-30.282 30.282v6.622l-65.51 84.225h-5.148c-16.725 0-30.283 13.558-30.283 30.282v20.188c0 16.724 13.558 30.282 30.282 30.282h70.658v323.01h-10.093c-22.299 0-40.376 18.077-40.376 40.376v30.282c0 5.575 4.519 10.094 10.094 10.094h222.069c5.575 0 10.094-4.519 10.094-10.094v-30.282c0-22.299-18.077-40.376-40.376-40.376h-10.094v-323.01h211.975v40.376h-80.753c-16.724 0-30.282 13.558-30.282 30.282v11.951c-12.056 4.262-20.135 15.638-20.188 28.425v272.54c0 11.15 9.039 20.188 20.188 20.188h242.257c11.15 0 20.188-9.039 20.188-20.188v-272.54c-.053-12.787-8.132-24.163-20.188-28.425v-11.95c0-16.724-13.558-30.282-30.282-30.282h-80.753v-40.376h100.941c16.724 0 30.282-13.558 30.282-30.282v-20.188c.001-16.725-13.557-30.283-30.282-30.283zm-151.41 464.326v-60.564h80.752v60.564zm161.504 0h-60.564v-60.564c0-11.15-9.039-20.188-20.188-20.188h-80.752c-11.15 0-20.188 9.039-20.188 20.188v60.564h-60.564v-272.54c0-5.575 4.519-10.094 10.094-10.094h222.069c5.575 0 10.094 4.519 10.094 10.094v272.54zm-20.188-312.915v10.094h-201.881v-10.094c0-5.575 4.519-10.094 10.094-10.094h181.693c5.575 0 10.094 4.519 10.094 10.094zm-122.754-151.411h-200.256v-66.752zm-220.444-22.944-35.531-32.574 35.531-32.553zm-50.47-46.261-34.633-31.736h69.265zm-14.939 13.687-35.531 32.574v-65.127zm14.939 13.708 45.625 41.81h-91.25zm-70.658-9.519v51.328h-39.922zm20.188 155.025 35.531 32.574-35.531 32.574zm50.47 46.271 45.625 41.82-45.625 41.82-45.625-41.82zm-50.47 64.764 35.531 32.574-35.531 32.574zm50.47 46.271 45.625 41.82-45.625 41.82-45.625-41.82zm-14.939 97.337-35.531 32.574v-65.147zm14.939 13.697 34.613 31.726h-69.225zm14.939-13.697 35.531-32.574v65.147zm35.531-78.461-35.531-32.574 35.531-32.574zm0-111.035-35.531-32.574 35.531-32.574zm-50.47-46.271-45.625-41.82h91.25zm100.941 321.566v20.188h-201.882v-20.188c0-11.15 9.039-20.188 20.188-20.188h161.505c11.15 0 20.189 9.039 20.189 20.188zm312.915-393.668c0 5.575-4.519 10.094-10.094 10.094h-545.079c-5.575 0-10.094-4.519-10.094-10.094v-20.188c0-5.575 4.519-10.094 10.094-10.094h545.079c5.575 0 10.094 4.519 10.094 10.094z"/><path id="Shape_277_" d="m434.045 323.01h-50.47c-11.15 0-20.188 9.039-20.188 20.188v30.282c0 11.15 9.039 20.188 20.188 20.188h50.47c11.15 0 20.188-9.039 20.188-20.188v-30.282c0-11.15-9.039-20.188-20.188-20.188zm-50.471 50.47v-30.282h50.47v30.282z"/><path id="Shape_276_" d="m545.079 323.01h-50.47c-11.15 0-20.188 9.039-20.188 20.188v30.282c0 11.15 9.039 20.188 20.188 20.188h50.47c11.15 0 20.188-9.039 20.188-20.188v-30.282c0-11.15-9.038-20.188-20.188-20.188zm-50.47 50.47v-30.282h50.47v30.282z"/><path id="Shape_275_" d="m434.045 413.856h-50.47c-11.15 0-20.188 9.039-20.188 20.188v30.282c0 11.15 9.039 20.188 20.188 20.188h50.47c11.15 0 20.188-9.039 20.188-20.188v-30.282c0-11.149-9.039-20.188-20.188-20.188zm-50.471 50.471v-30.282h50.47v30.282z"/><path id="Shape_274_" d="m545.079 413.856h-50.47c-11.15 0-20.188 9.039-20.188 20.188v30.282c0 11.15 9.039 20.188 20.188 20.188h50.47c11.15 0 20.188-9.039 20.188-20.188v-30.282c0-11.149-9.038-20.188-20.188-20.188zm-50.47 50.471v-30.282h50.47v30.282z"/></g></g></g></svg>