<svg height="512pt" viewBox="0 0 512.00183 512" width="512pt" xmlns="http://www.w3.org/2000/svg" fill="rgb(253, 191, 48)"><path d="m273.628906 302.03125c83.269532 0 151.015625-67.746094 151.015625-151.015625s-67.746093-151.015625-151.015625-151.015625c-83.269531 0-151.015625 67.746094-151.015625 151.015625s67.746094 151.015625 151.015625 151.015625zm103.164063-214.210938c-3.492188.472657-7.011719.738282-10.53125.738282-35.457031 0-66.191407-23.992188-75.515625-57.34375 36.367187 5.171875 67.578125 26.566406 86.046875 56.605468zm-121.824219-56.382812c-9.28125 33.386719-39.574219 57.121094-75.484375 57.121094-3.046875 0-6.097656-.203125-9.132813-.558594 18.191407-29.707031 48.835938-51 84.617188-56.5625zm-97.28125 84.882812c.152344.035157.296875.082032.453125.113282 7.015625 1.410156 14.195313 2.121094 21.34375 2.121094 27.117187 0 53.078125-10.066407 73.101563-28.351563 8.050781-7.355469 14.867187-15.789063 20.296874-24.996094 5.808594 9.847657 13.179688 18.800781 21.921876 26.460938 19.777343 17.339843 45.15625 26.890625 71.460937 26.890625 7.617187 0 15.257813-.8125 22.710937-2.40625.171876-.039063.332032-.09375.503907-.136719 3.355469 11.085937 5.167969 22.835937 5.167969 35 0 66.730469-54.289063 121.019531-121.015626 121.019531-66.730468 0-121.019531-54.289062-121.019531-121.019531 0-12.054687 1.777344-23.699219 5.074219-34.695313zm0 0"/><path d="m511.355469 491.785156c-14.113281-46.746094-45.558594-88.636718-88.535157-117.953125-43.238281-29.496093-94.828124-45.085937-149.191406-45.085937-28.828125 0-56.867187 4.40625-83.300781 12.925781l-8.726563-9.796875c-9.890624-11.101562-25.664062-14.589844-39.25-8.679688-6.34375 2.761719-13.460937.414063-16.917968-5.578124l-29.894532-51.777344c-3.460937-5.988282-1.933593-13.324219 3.628907-17.4375 11.914062-8.8125 16.777343-24.21875 12.109375-38.332032l-15.652344-47.300781c-3.433594-10.371093-11.007812-18.054687-21.328125-21.636719-10.320313-3.582031-21.023437-2.246093-30.144531 3.765626-43.359375 28.585937-56.976563 86.226562-30.996094 131.222656l62.183594 107.703125c4.058594 7.035156 8.875 13.378906 14.28125 18.996093-25.117188 25.378907-43.679688 55.851563-53.65625 88.742188-2.402344 7.929688 2.074218 16.304688 10.003906 18.707031 7.925781 2.402344 16.300781-2.074219 18.707031-10 9.160157-30.210937 26.300781-57.109375 49.078125-79.136719 14.359375 7.738282 30.492188 11.847657 46.871094 11.847657 14.800781 0 29.800781-3.351563 43.855469-10.390625 9.765625-4.890625 16.277343-13.492188 18.332031-24.222656 2.058594-10.726563-.8125-21.128907-8.078125-29.289063l-2.242187-2.519531c19.503906-5.089844 40.039062-7.816406 61.136718-7.816406 97.863282 0 183.8125 58.273437 209.011719 141.714843 1.957031 6.484375 7.910156 10.667969 14.351563 10.667969 1.4375 0 2.898437-.210938 4.34375-.644531 7.929687-2.394531 12.417968-10.765625 10.019531-18.695313zm-318.003907-99.066406c-.292968 1.527344-.917968 2.351562-2.308593 3.046875-32.261719 16.164063-71.671875 4.328125-89.722657-26.941406l-62.183593-107.703125c-18.054688-31.269532-8.597657-71.316406 21.53125-91.175782.789062-.523437 1.484375-.773437 2.238281-.773437.476562 0 .984375.101563 1.554688.300781 1.46875.507813 2.195312 1.246094 2.683593 2.722656l15.652344 47.300782c.609375 1.832031.046875 3.667968-1.464844 4.789062-17.75 13.125-22.808593 37.441406-11.773437 56.554688l29.894531 51.777344c11.035156 19.117187 34.625 26.890624 54.863281 18.085937 1.726563-.75 3.597656-.316406 4.882813 1.125l33.136719 37.203125c1.03125 1.160156 1.308593 2.160156 1.015624 3.6875zm0 0"/></svg>